HIERARCHY
ROOT Hips
{
	OFFSET 0.000000 121.760803 0.000000
	CHANNELS 6 Xposition Yposition Zposition Xrotation Yrotation Zrotation 
	JOINT Spine
	{
		OFFSET 0.072000 7.257294 -0.789700
		CHANNELS 3 Xrotation Yrotation Zrotation
		JOINT Spine1
		{
			OFFSET 0.000000 12.508769 -0.658067
			CHANNELS 3 Xrotation Yrotation Zrotation
			JOINT Spine1_split
			{
				OFFSET 0.000000 12.508769 -0.658067
				CHANNELS 3 Xrotation Yrotation Zrotation
				JOINT Spine2
				{
					OFFSET 0.000000 12.508769 -0.658067
					CHANNELS 3 Xrotation Yrotation Zrotation
					JOINT Neck
					{
						OFFSET 0.000000 14.033295 7.520400
						CHANNELS 3 Xrotation Yrotation Zrotation
						JOINT Head
						{
							OFFSET 0.000000 8.198502 5.703100
							CHANNELS 3 Xrotation Yrotation Zrotation
							JOINT HeadTop_End
							{
								OFFSET 0.000000 17.760803 13.332701
								CHANNELS 3 Xrotation Yrotation Zrotation
								End Site
								{
									OFFSET 0.000000 0.000000 0.000000
								}
							}
						}
					}
					JOINT LeftShoulder
					{
						OFFSET 6.292450 5.785301 -0.669000
						CHANNELS 3 Xrotation Yrotation Zrotation
						JOINT LeftShoulder_split
						{
							OFFSET 6.292450 5.785301 -0.669000
							CHANNELS 3 Xrotation Yrotation Zrotation
							JOINT LeftArm
							{
								OFFSET 13.907140 -6.093903 1.965100
								CHANNELS 3 Xrotation Yrotation Zrotation
								JOINT LeftForeArm
								{
									OFFSET 34.140198 0.000000 0.000000
									CHANNELS 3 Xrotation Yrotation Zrotation
									JOINT LeftHand
									{
										OFFSET 40.960209 0.000000 0.000000
										CHANNELS 3 Xrotation Yrotation Zrotation
										JOINT LeftHandThumb1
										{
											OFFSET 10.006996 -7.170425 9.573125
											CHANNELS 3 Xrotation Yrotation Zrotation
											JOINT LeftHandThumb2
											{
												OFFSET 1.835007 -1.059448 1.059443
												CHANNELS 3 Xrotation Yrotation Zrotation
												JOINT LeftHandThumb3
												{
													OFFSET 2.112267 -1.219513 1.219518
													CHANNELS 3 Xrotation Yrotation Zrotation
													JOINT LeftHandThumb4
													{
														OFFSET 4.843811 -2.796570 2.796576
														CHANNELS 3 Xrotation Yrotation Zrotation
														End Site
														{
															OFFSET 0.000000 0.000000 0.000000
														}
													}
												}
											}
										}
										JOINT LeftHandIndex1
										{
											OFFSET 18.389847 -0.922348 4.596882
											CHANNELS 3 Xrotation Yrotation Zrotation
											JOINT LeftHandIndex2
											{
												OFFSET 4.711273 0.000000 0.000000
												CHANNELS 3 Xrotation Yrotation Zrotation
												JOINT LeftHandIndex3
												{
													OFFSET 2.886131 0.000000 0.000000
													CHANNELS 3 Xrotation Yrotation Zrotation
													JOINT LeftHandIndex4
													{
														OFFSET 6.145912 0.000000 0.000000
														CHANNELS 3 Xrotation Yrotation Zrotation
														End Site
														{
															OFFSET 0.000000 0.000000 0.000000
														}
													}
												}
											}
										}
										JOINT LeftHandMiddle1
										{
											OFFSET 18.013008 0.000000 0.000000
											CHANNELS 3 Xrotation Yrotation Zrotation
											JOINT LeftHandMiddle2
											{
												OFFSET 4.946693 0.000000 0.000000
												CHANNELS 3 Xrotation Yrotation Zrotation
												JOINT LeftHandMiddle3
												{
													OFFSET 3.342232 0.000000 0.000000
													CHANNELS 3 Xrotation Yrotation Zrotation
													JOINT LeftHandMiddle4
													{
														OFFSET 4.461754 0.000000 0.000000
														CHANNELS 3 Xrotation Yrotation Zrotation
														End Site
														{
															OFFSET 0.000000 0.000000 0.000000
														}
													}
												}
											}
										}
										JOINT LeftHandRing1
										{
											OFFSET 15.849892 -0.102921 -4.126150
											CHANNELS 3 Xrotation Yrotation Zrotation
											JOINT LeftHandRing2
											{
												OFFSET 3.527054 0.000000 0.000000
												CHANNELS 3 Xrotation Yrotation Zrotation
												JOINT LeftHandRing3
												{
													OFFSET 2.961098 0.000000 0.000000
													CHANNELS 3 Xrotation Yrotation Zrotation
													JOINT LeftHandRing4
													{
														OFFSET 4.927200 0.000000 0.000000
														CHANNELS 3 Xrotation Yrotation Zrotation
														End Site
														{
															OFFSET 0.000000 0.000000 0.000000
														}
													}
												}
											}
										}
										JOINT LeftHandPinky1
										{
											OFFSET 12.791824 -0.832031 -6.799156
											CHANNELS 3 Xrotation Yrotation Zrotation
											JOINT LeftHandPinky2
											{
												OFFSET 3.327133 0.000000 0.000000
												CHANNELS 3 Xrotation Yrotation Zrotation
												JOINT LeftHandPinky3
												{
													OFFSET 3.014900 0.000000 0.000000
													CHANNELS 3 Xrotation Yrotation Zrotation
													JOINT LeftHandPinky4
													{
														OFFSET 5.847786 0.000000 0.000000
														CHANNELS 3 Xrotation Yrotation Zrotation
														End Site
														{
															OFFSET 0.000000 0.000000 0.000000
														}
													}
												}
											}
										}
									}
								}
							}
						}
					}
					JOINT RightShoulder
					{
						OFFSET -6.292450 5.785301 -0.669000
						CHANNELS 3 Xrotation Yrotation Zrotation
						JOINT RightShoulder_split
						{
							OFFSET -6.292450 5.785301 -0.669000
							CHANNELS 3 Xrotation Yrotation Zrotation
							JOINT RightArm
							{
								OFFSET -13.907140 -6.093903 1.965100
								CHANNELS 3 Xrotation Yrotation Zrotation
								JOINT RightForeArm
								{
									OFFSET -34.140198 0.000000 0.000000
									CHANNELS 3 Xrotation Yrotation Zrotation
									JOINT RightHand
									{
										OFFSET -40.960209 0.000000 0.000000
										CHANNELS 3 Xrotation Yrotation Zrotation
										JOINT RightHandThumb1
										{
											OFFSET -10.007050 -7.170456 9.573117
											CHANNELS 3 Xrotation Yrotation Zrotation
											JOINT RightHandThumb2
											{
												OFFSET -1.835007 -1.059448 1.059443
												CHANNELS 3 Xrotation Yrotation Zrotation
												JOINT RightHandThumb3
												{
													OFFSET -2.112267 -1.219513 1.219518
													CHANNELS 3 Xrotation Yrotation Zrotation
													JOINT RightHandThumb4
													{
														OFFSET -4.843834 -2.796585 2.796590
														CHANNELS 3 Xrotation Yrotation Zrotation
														End Site
														{
															OFFSET 0.000000 0.000000 0.000000
														}
													}
												}
											}
										}
										JOINT RightHandIndex1
										{
											OFFSET -18.389870 -0.922424 4.596786
											CHANNELS 3 Xrotation Yrotation Zrotation
											JOINT RightHandIndex2
											{
												OFFSET -4.711273 0.000000 0.000000
												CHANNELS 3 Xrotation Yrotation Zrotation
												JOINT RightHandIndex3
												{
													OFFSET -2.886131 0.000000 0.000000
													CHANNELS 3 Xrotation Yrotation Zrotation
													JOINT RightHandIndex4
													{
														OFFSET -6.145920 0.000000 0.000000
														CHANNELS 3 Xrotation Yrotation Zrotation
														End Site
														{
															OFFSET 0.000000 0.000000 0.000000
														}
													}
												}
											}
										}
										JOINT RightHandMiddle1
										{
											OFFSET -18.013008 0.000000 0.000000
											CHANNELS 3 Xrotation Yrotation Zrotation
											JOINT RightHandMiddle2
											{
												OFFSET -4.946693 0.000000 0.000000
												CHANNELS 3 Xrotation Yrotation Zrotation
												JOINT RightHandMiddle3
												{
													OFFSET -3.342232 0.000000 0.000000
													CHANNELS 3 Xrotation Yrotation Zrotation
													JOINT RightHandMiddle4
													{
														OFFSET -4.461754 0.000000 0.000000
														CHANNELS 3 Xrotation Yrotation Zrotation
														End Site
														{
															OFFSET 0.000000 0.000000 0.000000
														}
													}
												}
											}
										}
										JOINT RightHandRing1
										{
											OFFSET -15.849876 -0.102936 -4.126237
											CHANNELS 3 Xrotation Yrotation Zrotation
											JOINT RightHandRing2
											{
												OFFSET -3.527054 0.000000 0.000000
												CHANNELS 3 Xrotation Yrotation Zrotation
												JOINT RightHandRing3
												{
													OFFSET -2.961098 0.000000 0.000000
													CHANNELS 3 Xrotation Yrotation Zrotation
													JOINT RightHandRing4
													{
														OFFSET -4.927200 0.000000 0.000000
														CHANNELS 3 Xrotation Yrotation Zrotation
														End Site
														{
															OFFSET 0.000000 0.000000 0.000000
														}
													}
												}
											}
										}
										JOINT RightHandPinky1
										{
											OFFSET -12.791786 -0.832077 -6.799222
											CHANNELS 3 Xrotation Yrotation Zrotation
											JOINT RightHandPinky2
											{
												OFFSET -3.327133 0.000000 0.000000
												CHANNELS 3 Xrotation Yrotation Zrotation
												JOINT RightHandPinky3
												{
													OFFSET -3.014900 0.000000 0.000000
													CHANNELS 3 Xrotation Yrotation Zrotation
													JOINT RightHandPinky4
													{
														OFFSET -5.847786 0.000000 0.000000
														CHANNELS 3 Xrotation Yrotation Zrotation
														End Site
														{
															OFFSET 0.000000 0.000000 0.000000
														}
													}
												}
											}
										}
									}
								}
							}
						}
					}
				}
			}
		}
	}
	JOINT LeftUpLeg
	{
		OFFSET 13.026900 -6.336304 -1.092800
		CHANNELS 3 Xrotation Yrotation Zrotation
		JOINT LeftLeg
		{
			OFFSET 0.524474 -46.096886 9.782700
			CHANNELS 3 Xrotation Yrotation Zrotation
			JOINT LeftFoot
			{
				OFFSET -0.524474 -53.427422 -12.948200
				CHANNELS 3 Xrotation Yrotation Zrotation
				JOINT LeftToeBase
				{
					OFFSET 0.192200 -14.009700 16.364100
					CHANNELS 3 Xrotation Yrotation Zrotation
					JOINT LeftToe_End
					{
						OFFSET -1.784700 -0.561700 9.474800
						CHANNELS 3 Xrotation Yrotation Zrotation
						End Site
						{
							OFFSET 0.000000 0.000000 0.000000
						}
					}
				}
			}
		}
	}
	JOINT RightUpLeg
	{
		OFFSET -12.883000 -6.336304 -1.092800
		CHANNELS 3 Xrotation Yrotation Zrotation
		JOINT RightLeg
		{
			OFFSET -0.524587 -46.096825 9.782800
			CHANNELS 3 Xrotation Yrotation Zrotation
			JOINT RightFoot
			{
				OFFSET 0.524587 -53.427383 -12.948300
				CHANNELS 3 Xrotation Yrotation Zrotation
				JOINT RightToeBase
				{
					OFFSET -0.192200 -14.009700 16.364100
					CHANNELS 3 Xrotation Yrotation Zrotation
					JOINT RightToe_End
					{
						OFFSET 1.784700 -0.561700 9.474800
						CHANNELS 3 Xrotation Yrotation Zrotation
						End Site
						{
							OFFSET 0.000000 0.000000 0.000000
						}
					}
				}
			}
		}
	}
}
MOTION
Frames: 4
Frame Time: 0.016667
2.035421 99.578667 33.256279 5.437406 -411.213861 6.105165 11.850470 -6.283405 6.408856 7.182697 -7.370589 1.871819 0.000000 0.000000 0.000000 -3.934135 -6.959434 2.025284 7.764866 41.421522 -11.305573 0.258116 26.018793 -6.977972 -0.000000 0.000000 -0.000001 1.383207 -5.637196 -0.733879 0.000000 0.000000 0.000000 -2.266007 -2.878847 -36.679475 -0.000820 -20.848208 -3.050618 -46.535530 -14.688335 25.139508 20.995588 -10.306034 6.187767 3.717721 17.385545 -9.270259 11.901751 19.029127 -1.676427 -0.000000 -0.000000 0.000000 12.155540 -5.008999 -19.357554 -1.752635 1.408427 -24.867489 -1.756616 1.242293 -27.840657 0.000000 -0.000001 0.000000 2.495163 2.549568 -39.192001 -1.398705 0.248722 -47.542939 -1.203680 -0.020761 -51.118007 -0.000001 -0.000000 0.000000 0.949979 6.178081 -48.371687 -2.316274 1.003924 -53.554605 -2.280325 0.916078 -56.721658 -0.000001 -0.000001 -0.000000 -1.286401 4.834434 -53.465273 -2.521700 1.318787 -48.312206 -3.127542 2.229915 -66.235800 0.000001 0.000001 -0.000002 9.987214 -5.269193 3.687164 0.000000 0.000000 0.000000 4.872930 -1.636417 76.375510 -10.545821 13.289827 4.346984 -27.527551 -8.499037 -15.910796 55.149533 18.649546 -29.698274 -0.442545 -14.180559 7.313154 21.666992 -29.244490 9.142378 -0.000001 -0.000002 -0.000002 5.673401 7.585011 36.844151 1.050473 3.824530 68.900237 0.499564 3.026032 62.196468 -0.000000 0.000002 0.000002 -0.125706 1.886086 45.000773 -1.169000 3.204676 68.417663 -0.936407 1.813616 41.107562 -0.000001 -0.000000 0.000002 -5.311993 1.216641 58.508773 -0.745225 1.667558 48.011288 -0.816452 1.840662 53.666538 -0.000002 0.000000 -0.000002 -7.756824 -9.376441 47.264004 -0.526042 1.541575 45.600542 -0.508188 0.803443 24.986610 0.000000 -0.000000 -0.000000 -3.695295 14.047438 -6.080071 44.790116 -8.996785 -7.875213 -30.561217 -8.824558 16.940444 -4.949091 -2.387895 0.489914 -0.000000 0.000004 -0.000000 -53.061974 -1.454783 1.542719 15.896249 6.566385 2.663386 -3.169234 3.056856 20.437145 2.549274 -5.172635 8.236462 0.000002 0.000000 -0.000000 
3.388866 100.355026 31.966890 5.555959 -412.517198 5.814106 11.693882 -6.039599 6.301371 6.897510 -6.951600 1.878612 0.000000 0.000000 0.000000 -4.209820 -6.549582 2.113406 6.754096 41.480446 -10.680609 1.712230 25.842649 -7.475038 0.000001 -0.000000 0.000000 1.270524 -5.316216 -0.766513 0.000000 0.000000 0.000000 -4.829684 -2.597543 -36.315084 -0.000766 -23.380832 -2.655204 -43.579991 -16.603186 22.958416 20.993659 -10.305563 6.186543 3.715757 17.385347 -9.269081 11.901590 19.029243 -1.677056 0.000000 -0.000003 0.000001 12.155543 -5.009002 -19.357506 -1.752638 1.408479 -24.867529 -1.757471 1.242280 -27.840628 -0.000000 -0.000002 -0.000000 2.495531 2.548929 -39.191923 -1.398865 0.248780 -47.542928 -1.202724 -0.020765 -51.118037 -0.000002 -0.000000 0.000001 0.950624 6.178136 -48.371734 -2.316270 1.003873 -53.554605 -2.280349 0.916069 -56.721654 -0.000002 -0.000001 -0.000000 -1.286420 4.834463 -53.465249 -2.521148 1.318770 -48.312288 -3.127834 2.229783 -66.235753 -0.000000 -0.000001 -0.000000 10.009425 -5.246983 3.894581 0.000000 0.000000 0.000000 5.281051 -0.456756 74.450367 -9.017197 16.459813 6.074807 -27.199907 -7.979325 -16.432218 55.149526 18.649536 -29.698267 -0.442543 -14.180560 7.313155 21.666991 -29.244486 9.142375 0.000001 0.000001 -0.000005 5.673398 7.585001 36.844151 1.050473 3.824531 68.900237 0.499562 3.026030 62.196468 0.000000 -0.000000 0.000002 -0.125705 1.886081 45.000773 -1.169007 3.204674 68.417663 -0.936408 1.813621 41.107565 -0.000002 0.000000 -0.000003 -5.311993 1.216640 58.508766 -0.745231 1.667557 48.011292 -0.816452 1.840662 53.666538 0.000002 -0.000000 -0.000000 -7.756824 -9.376443 47.264001 -0.526037 1.541576 45.600542 -0.508189 0.803442 24.986608 0.000001 0.000001 -0.000000 -2.716401 14.001971 -6.280344 41.571796 -8.345219 -7.809015 -33.473323 -8.455255 15.802481 -0.892932 -5.671179 0.758442 0.000001 -0.000001 0.000000 -52.322633 -2.453978 0.884576 15.519942 7.475612 3.746501 -0.643039 3.940722 21.209947 1.914871 -4.655927 7.674922 0.000002 0.000002 0.000002 
4.553480 101.008606 30.846806 5.813058 -413.480309 6.258494 11.579089 -5.883530 6.079904 6.702440 -6.646081 1.735214 0.000000 0.000000 0.000000 -4.396953 -6.222370 2.032143 5.775684 41.621144 -10.698920 2.687454 25.531735 -7.780066 0.000001 0.000000 0.000000 1.193832 -5.438125 -0.666400 0.000000 0.000000 0.000000 -7.183521 -1.982265 -36.296165 -0.000746 -25.615154 -2.431725 -40.197176 -19.135395 21.319338 20.991784 -10.305273 6.185330 3.713723 17.384937 -9.267940 11.901407 19.029360 -1.677501 0.000000 0.000001 -0.000000 12.155551 -5.008992 -19.357572 -1.752638 1.408503 -24.867498 -1.758016 1.242312 -27.840599 -0.000000 0.000002 -0.000000 2.495712 2.548427 -39.191888 -1.399378 0.248728 -47.542928 -1.202161 -0.020751 -51.118048 -0.000003 0.000000 0.000003 0.951314 6.178122 -48.371820 -2.316278 1.003902 -53.554625 -2.280355 0.916074 -56.721634 0.000002 -0.000000 -0.000000 -1.286400 4.834476 -53.465283 -2.520824 1.318748 -48.312240 -3.128331 2.229627 -66.235821 -0.000002 -0.000001 -0.000001 10.002478 -5.247362 3.791883 0.000000 0.000000 0.000000 5.106700 1.244158 72.693963 -7.342025 18.797413 7.476825 -27.297746 -7.313759 -16.910836 55.149522 18.649536 -29.698267 -0.442544 -14.180560 7.313151 21.666992 -29.244486 9.142380 0.000001 -0.000001 -0.000000 5.673399 7.585005 36.844151 1.050475 3.824530 68.900244 0.499562 3.026031 62.196461 -0.000000 -0.000001 0.000001 -0.125706 1.886080 45.000773 -1.168999 3.204673 68.417663 -0.936406 1.813616 41.107569 -0.000001 -0.000000 0.000003 -5.311994 1.216641 58.508766 -0.745230 1.667558 48.011295 -0.816451 1.840663 53.666541 0.000002 -0.000003 -0.000001 -7.756824 -9.376444 47.263997 -0.526040 1.541576 45.600542 -0.508191 0.803440 24.986604 -0.000003 -0.000001 0.000000 -2.215876 13.820052 -6.942977 39.157027 -7.534860 -7.759371 -35.188636 -7.709307 14.344504 2.176639 -8.824849 1.587873 0.000001 0.000001 0.000000 -52.449101 -2.143752 0.501975 16.940582 7.898100 3.370203 2.029090 4.607246 20.803435 3.273253 -3.936299 7.364751 0.000001 0.000002 0.000002 
5.570742 101.529747 29.789745 6.083708 -414.085437 6.901939 11.523546 -5.776553 5.824574 6.628109 -6.390926 1.563488 0.000000 0.000000 0.000000 -4.464400 -5.939058 1.913256 4.365869 41.687441 -10.666465 3.702049 25.152699 -8.050836 0.000000 -0.000001 0.000001 1.126229 -5.641833 -0.722996 0.000000 0.000000 0.000000 -9.346834 -1.665543 -36.045312 -0.000755 -28.424336 -2.537049 -36.837314 -19.811003 22.805344 20.990336 -10.305112 6.184463 3.711911 17.384486 -9.266751 11.901372 19.029419 -1.677657 -0.000001 0.000001 -0.000002 12.155596 -5.008966 -19.357506 -1.752631 1.408420 -24.867523 -1.758206 1.242321 -27.840584 0.000000 0.000000 0.000000 2.495637 2.548054 -39.191865 -1.400262 0.248753 -47.542894 -1.202023 -0.020800 -51.118089 0.000001 -0.000002 -0.000002 0.951992 6.178111 -48.371946 -2.316332 1.003920 -53.554615 -2.280360 0.916065 -56.721630 -0.000000 -0.000000 -0.000000 -1.286394 4.834447 -53.465286 -2.520804 1.318776 -48.312288 -3.129010 2.229278 -66.235739 -0.000001 0.000000 0.000000 10.045359 -5.469086 3.772903 0.000000 0.000000 0.000000 4.495815 3.336448 70.727633 -5.588872 20.793983 8.779310 -27.367687 -6.389289 -16.786230 55.149526 18.649540 -29.698274 -0.442548 -14.180563 7.313151 21.666992 -29.244493 9.142372 -0.000001 -0.000000 0.000003 5.673399 7.585006 36.844151 1.050474 3.824532 68.900237 0.499564 3.026031 62.196461 -0.000000 -0.000000 -0.000002 -0.125706 1.886080 45.000773 -1.169003 3.204673 68.417663 -0.936407 1.813615 41.107565 -0.000001 -0.000001 0.000001 -5.311994 1.216642 58.508766 -0.745229 1.667558 48.011288 -0.816451 1.840661 53.666535 -0.000001 -0.000000 -0.000002 -7.756824 -9.376444 47.263997 -0.526042 1.541574 45.600539 -0.508192 0.803441 24.986606 0.000001 -0.000001 -0.000001 -2.115795 13.123673 -7.792855 37.342522 -6.953047 -7.386521 -36.592691 -6.769960 12.304451 5.249276 -11.123815 3.177353 0.000000 -0.000001 0.000000 -52.874000 -1.083409 0.234637 19.115437 8.123847 2.102930 5.029672 5.108316 21.475373 3.856333 -3.668704 7.269364 0.000000 0.000002 0.000001 
